HIERARCHY
ROOT Hips
{
  OFFSET 62.6061 91.3622 18.1081
  CHANNELS 6 Xposition Yposition Zposition Zrotation Xrotation Yrotation
  JOINT spine
  {
    OFFSET 0 6.84637 0.3937
    CHANNELS 3 Zrotation Xrotation Yrotation
    JOINT spine1
    {
      OFFSET 0 9.49621 0
      CHANNELS 3 Zrotation Xrotation Yrotation
      JOINT spine2
      {
        OFFSET 0 9.09909 0
        CHANNELS 3 Zrotation Xrotation Yrotation
        JOINT Neck
        {
          OFFSET 0 23.3612 1.11378
          CHANNELS 3 Zrotation Xrotation Yrotation
          JOINT Head
          {
            OFFSET 0 7.05802 0
            CHANNELS 3 Zrotation Xrotation Yrotation
            End Site
            {
              OFFSET 0 17.0844 -5.63419
            }
          }
        }
        JOINT RightShoulder
        {
          OFFSET -3.83136 9.82631 -0.533491
          CHANNELS 3 Zrotation Xrotation Yrotation
          JOINT RightArm
          {
            OFFSET 0 12.8881 0
            CHANNELS 3 Zrotation Xrotation Yrotation
            JOINT RightArmRoll
            {
              OFFSET 0 6.50617 0
              CHANNELS 3 Zrotation Xrotation Yrotation
              JOINT RightForeArm
              {
                OFFSET 0 18.9501 0
                CHANNELS 3 Zrotation Xrotation Yrotation
                JOINT RightForeArmRoll
                {
                  OFFSET 0 7.30093 0
                  CHANNELS 3 Zrotation Xrotation Yrotation
                  JOINT RightHand
                  {
                    OFFSET 0 14.6514 0
                    CHANNELS 3 Zrotation Xrotation Yrotation
                    End Site
                    {
                      OFFSET 0 0 0
                    }
                  }
                }
              }
            }
          }
        }
        JOINT LeftShoulder
        {
          OFFSET 3.83136 9.82631 -0.533491
          CHANNELS 3 Zrotation Xrotation Yrotation
          JOINT LeftArm
          {
            OFFSET 0 12.8881 0
            CHANNELS 3 Zrotation Xrotation Yrotation
            JOINT LeftArmRoll
            {
              OFFSET 0 6.50617 0
              CHANNELS 3 Zrotation Xrotation Yrotation
              JOINT LeftForeArm
              {
                OFFSET 0 18.9501 0
                CHANNELS 3 Zrotation Xrotation Yrotation
                JOINT LeftForeArmRoll
                {
                  OFFSET 0 7.30092 0
                  CHANNELS 3 Zrotation Xrotation Yrotation
                  JOINT LeftHand
                  {
                    OFFSET 0 14.6514 0
                    CHANNELS 3 Zrotation Xrotation Yrotation
                    End Site
                    {
                      OFFSET 0 0 0
                    }
                  }
                }
              }
            }
          }
        }
      }
    }
  }
  JOINT RightUpLeg
  {
    OFFSET -6.06837 -1.11278 -0.933477
    CHANNELS 3 Zrotation Xrotation Yrotation
    JOINT RightUpLegRoll
    {
      OFFSET 0 17.1796 0
      CHANNELS 3 Zrotation Xrotation Yrotation
      JOINT RightLeg
      {
        OFFSET 0 -21.2743 0
        CHANNELS 3 Zrotation Xrotation Yrotation
        JOINT RightLegRoll
        {
          OFFSET 0 21.3439 0
          CHANNELS 3 Zrotation Xrotation Yrotation
          JOINT RightFoot
          {
            OFFSET 0 17.7652 0
            CHANNELS 3 Zrotation Xrotation Yrotation
            JOINT RightToeBase
            {
              OFFSET 0 14.8508 0
              CHANNELS 3 Zrotation Xrotation Yrotation
              End Site
              {
                OFFSET 0.0062947 7.19213 -0.829005
              }
            }
          }
        }
      }
    }
  }
  JOINT LeftUpLeg
  {
    OFFSET 6.06837 -1.11278 -0.933477
    CHANNELS 3 Zrotation Xrotation Yrotation
    JOINT LeftUpLegRoll
    {
      OFFSET 0 17.1797 0
      CHANNELS 3 Zrotation Xrotation Yrotation
      JOINT LeftLeg
      {
        OFFSET 0 21.2742 0
        CHANNELS 3 Zrotation Xrotation Yrotation
        JOINT LeftLegRoll
        {
          OFFSET 0 21.5412 0
          CHANNELS 3 Zrotation Xrotation Yrotation
          JOINT LeftFoot
          {
            OFFSET 0 17.5679 0
            CHANNELS 3 Zrotation Xrotation Yrotation
            JOINT LeftToeBase
            {
              OFFSET 0 14.8508 0
              CHANNELS 3 Zrotation Xrotation Yrotation
              End Site
              {
                OFFSET -0.0282102 7.19214 -0.829005
              }
            }
          }
        }
      }
    }
  }
}
MOTION
Frames: 11
Frame Time: 0.00208333
59.5091 100.679 15.5726 -1.73067 0.151405 0.346095 -0.199134 -2.49496 0.0428606 -0.396199 -0.987319 0.102931 -0.397449 0.657728 0.109566 10.0345 18.2474 -5.17238 -5.68372 -3.86068 -2.42863 78.384 1.94085 -1.41836 76.5706 1.80327 23.2187 -9.88296e-006 -4.73886e-007 -7.62381e-006 8.53184 16.8917 -2.58195 -5.249e-006 -3.1784e-006 -3 8.02887 -4.95158 0.697749 -61.7193 3.05825 -1.36583 -92.2436 12.3683 -29.6136 -3.51952e-006 -3.10329e-006 1.48808e-005 -5.75529 11.2963 1.00526 1.46402e-005 -9.80767e-007 3.00075 -8.02949 -4.95145 -0.697654 -179.99 14.8695 -1.62362 180 7.01565e-015 179.006 178.839 21.4167 179.455 -1.02514e-006 7.58869e-007 0.266524 -18.1074 67.3528 19.0297 8.13649 25.2327 -3.48774 -177.561 9.98153 0.933546 4.54188e-006 -4.6773e-006 -1.07599 -1.20716 -21.1507 0.522357 -6.54413e-007 -3.04859e-006 -0.282716 18.7027 68.1886 -19.6836 -8.13649 25.2326 3.48773 
59.5732 100.428 15.6039 -1.63851 0.0749667 0.316096 -0.197529 -2.47294 0.0403935 -0.393103 -0.943268 0.097935 -0.394297 0.701778 0.104519 9.66728 18.5189 -5.05785 -5.46181 -4.15556 -2.40619 78.6931 2.15897 -1.37001 76.802 1.63778 23.1943 -9.88296e-006 -4.73886e-007 -7.62381e-006 8.52804 16.972 -2.59231 -5.249e-006 -3.1784e-006 -3 8.02887 -4.95158 0.697749 -62.7545 3.37613 -1.38235 -91.7157 11.9733 -29.8272 -3.51952e-006 -3.10329e-006 1.48808e-005 -5.79225 11.4493 1.02805 1.46402e-005 -9.80767e-007 3.00075 -8.02949 -4.95145 -0.697654 179.943 14.9588 -1.56658 180 7.01565e-015 179.003 178.847 21.7492 179.445 -1.02514e-006 7.58869e-007 0.273757 -18.1356 67.3909 19.0615 8.13649 25.2327 -3.48774 -177.747 9.9397 1.01714 4.54188e-006 -4.6773e-006 -1.07561 -1.23074 -21.2347 0.517881 -6.54413e-007 -3.04859e-006 -0.283853 18.6874 68.1709 -19.6692 -8.13649 25.2326 3.48773 
59.5414 100.16 15.6013 -1.54698 -0.00173794 0.285821 -0.195745 -2.45045 0.0379059 -0.389646 -0.898259 0.092883 -0.390784 0.746788 0.0994099 9.29571 18.7837 -4.94152 -5.23634 -4.44514 -2.38327 78.9961 2.37531 -1.32249 77.0363 1.47876 23.165 -9.88296e-006 -4.73886e-007 -7.62381e-006 8.52612 17.0529 -2.60287 -5.249e-006 -3.1784e-006 -3 8.02887 -4.95158 0.697749 -63.7846 3.68661 -1.39396 -91.1941 11.5965 -30.0503 -3.51952e-006 -3.10329e-006 1.48808e-005 -5.8172 11.6003 1.04851 1.46402e-005 -9.80767e-007 3.00075 -8.02949 -4.95145 -0.697654 179.876 15.0508 -1.50916 180 7.01564e-015 178.999 178.856 22.0879 179.435 -1.02514e-006 7.58869e-007 0.281052 -18.1634 67.4285 19.093 8.13649 25.2327 -3.48774 -177.93 9.90086 1.09733 4.54188e-006 -4.6773e-006 -1.07528 -1.25626 -21.3273 0.513039 -6.54413e-007 -3.04859e-006 -0.285129 18.6719 68.1528 -19.6548 -8.13649 25.2326 3.48773 
59.5623 99.893 15.6199 -1.45818 -0.0769852 0.25547 -0.193738 -2.42777 0.0354387 -0.38574 -0.852886 0.087851 -0.386822 0.792161 0.0943129 8.92803 19.0388 -4.8257 -5.01267 -4.72707 -2.36009 79.2927 2.58833 -1.27629 77.2747 1.32799 23.1329 -9.88296e-006 -4.73886e-007 -7.62381e-006 8.52461 17.1294 -2.61293 -5.249e-006 -3.1784e-006 -3 8.02887 -4.95158 0.697749 -64.7953 3.98631 -1.40143 -90.6943 11.2392 -30.2811 -3.51952e-006 -3.10329e-006 1.48808e-005 -5.82801 11.7499 1.06617 1.46402e-005 -9.80767e-007 3.00075 -8.02949 -4.95145 -0.697654 179.81 15.1469 -1.4531 180 7.01563e-015 178.996 178.866 22.432 179.425 -1.02514e-006 7.58869e-007 0.28836 -18.1903 67.4647 19.1235 8.13649 25.2327 -3.48774 -178.109 9.86831 1.17232 4.54188e-006 -4.6773e-006 -1.07505 -1.2839 -21.4313 0.507846 -6.54413e-007 -3.04859e-006 -0.28659 18.6567 68.1351 -19.6406 -8.13649 25.2326 3.48773 
59.5878 99.6114 15.6472 -1.37423 -0.149051 0.225244 -0.191466 -2.4052 0.0330326 -0.381298 -0.807743 0.0829153 -0.382325 0.837304 0.0893032 8.57256 19.2807 -4.71269 -4.79618 -4.99899 -2.33687 79.5826 2.79653 -1.23186 77.5189 1.18725 23.0996 -9.88296e-006 -4.73886e-007 -7.62381e-006 8.52201 17.1967 -2.6218 -5.249e-006 -3.1784e-006 -3 8.02887 -4.95158 0.697749 -65.7723 4.27187 -1.4055 -90.2316 10.9027 -30.5178 -3.51952e-006 -3.10329e-006 1.48808e-005 -5.82258 11.8987 1.08052 1.46402e-005 -9.80767e-007 3.00075 -8.02949 -4.95145 -0.697654 179.749 15.2485 -1.4001 180 7.01562e-015 178.992 178.876 22.7802 179.414 -1.02514e-006 7.58869e-007 0.295631 -18.2159 67.499 19.1524 8.13649 25.2327 -3.48774 -178.28 9.84535 1.24029 4.54188e-006 -4.6773e-006 -1.07492 -1.31387 -21.5495 0.502318 -6.54413e-007 -3.04859e-006 -0.288283 18.6421 68.1183 -19.6272 -8.13649 25.2326 3.48773 
59.6283 99.3441 15.6854 -1.29725 -0.216211 0.195343 -0.188885 -2.38305 0.0307285 -0.376235 -0.763427 0.0781521 -0.377208 0.88162 0.0844555 8.23769 19.5062 -4.60484 -4.59224 -5.25856 -2.31382 79.8655 2.99835 -1.18965 77.7703 1.05835 23.0671 -9.88296e-006 -4.73886e-007 -7.62381e-006 8.5168 17.2498 -2.62876 -5.249e-006 -3.1784e-006 -3 8.02887 -4.95158 0.697749 -66.7014 4.53993 -1.40696 -89.8214 10.5882 -30.7586 -3.51952e-006 -3.10329e-006 1.48808e-005 -5.7988 12.0475 1.09109 1.46402e-005 -9.80767e-007 3.00075 -8.02949 -4.95145 -0.697654 179.695 15.357 -1.35189 180 7.01562e-015 178.989 178.887 23.1318 179.403 -1.02514e-006 7.58869e-007 0.302816 -18.2397 67.5307 19.1791 8.13649 25.2327 -3.48774 -178.441 9.8353 1.29943 4.54188e-006 -4.6773e-006 -1.07492 -1.34635 -21.6846 0.496472 -6.54413e-007 -3.04859e-006 -0.290252 18.6287 68.1028 -19.6149 -8.13649 25.2326 3.48773 
59.5743 99.0477 15.6755 -1.22935 -0.276741 0.165967 -0.185954 -2.3616 0.028567 -0.370462 -0.720531 0.0736378 -0.371385 0.924517 0.0798448 7.93186 19.712 -4.50449 -4.40624 -5.50341 -2.29119 80.1413 3.19228 -1.15014 78.0304 0.943081 23.0372 -9.88296e-006 -4.73886e-007 -7.62381e-006 8.50749 17.2838 -2.63311 -5.249e-006 -3.1784e-006 -3 8.02887 -4.95158 0.697749 -67.5682 4.78711 -1.40655 -89.479 10.2968 -31.0019 -3.51952e-006 -3.10329e-006 1.48808e-005 -5.75453 12.1969 1.09739 1.46402e-005 -9.80767e-007 3.00075 -8.02949 -4.95145 -0.697654 179.651 15.4737 -1.31019 180 7.01561e-015 178.985 178.898 23.4857 179.392 -1.02514e-006 7.58868e-007 0.309866 -18.261 67.5592 19.2032 8.13649 25.2327 -3.48774 -178.588 9.84146 1.34794 4.54188e-006 -4.6773e-006 -1.07509 -1.38154 -21.8395 0.490323 -6.54413e-007 -3.04859e-006 -0.292544 18.6168 68.0892 -19.6042 -8.13649 25.2326 3.48773 
59.6109 98.7702 15.6986 -1.17262 -0.328917 0.137317 -0.182629 -2.34117 0.026589 -0.363896 -0.67965 0.0694487 -0.364772 0.965397 0.0755458 7.66358 19.8949 -4.41402 -4.24357 -5.73119 -2.26917 80.4097 3.37678 -1.11377 78.3007 0.84327 23.0118 -9.88296e-006 -4.73886e-007 -7.62381e-006 8.49257 17.2937 -2.63414 -5.249e-006 -3.1784e-006 -3 8.02887 -4.95158 0.697749 -68.3583 5.01005 -1.40505 -89.2194 10.0299 -31.2458 -3.51952e-006 -3.10329e-006 1.48808e-005 -5.68766 12.3476 1.09891 1.46402e-005 -9.80767e-007 3.00075 -8.02949 -4.95145 -0.697654 179.62 15.6 -1.27674 180 7.0156e-015 178.982 178.91 23.8408 179.381 -1.02514e-006 7.58868e-007 0.316732 -18.2794 67.5837 19.224 8.13649 25.2327 -3.48774 -178.721 9.86713 1.38401 4.54188e-006 -4.6773e-006 -1.07543 -1.41964 -22.0169 0.483886 -6.54413e-007 -3.04859e-006 -0.295206 18.6069 68.0781 -19.5956 -8.13649 25.2326 3.48773 
59.5981 98.4728 15.6995 -1.12917 -0.371015 0.109591 -0.178868 -2.32204 0.0248351 -0.356449 -0.64138 0.0656609 -0.357283 1.00367 0.0716335 7.44137 20.0516 -4.3358 -4.10963 -5.93955 -2.248 80.6704 3.55033 -1.08103 78.5828 0.760731 22.9928 -9.88296e-006 -4.73886e-007 -7.62381e-006 8.47055 17.2747 -2.63115 -5.249e-006 -3.1784e-006 -3 8.02887 -4.95158 0.697749 -69.0575 5.20539 -1.40322 -89.0578 9.78851 -31.4887 -3.51952e-006 -3.10329e-006 1.48808e-005 -5.59604 12.5002 1.09518 1.46402e-005 -9.80767e-007 3.00075 -8.02949 -4.95145 -0.697654 179.603 15.7373 -1.25327 180 7.0156e-015 178.979 178.922 24.1962 179.37 -1.02514e-006 7.58868e-007 0.323363 -18.2945 67.6037 19.241 8.13649 25.2327 -3.48774 -178.835 9.91562 1.40583 4.54188e-006 -4.6773e-006 -1.07597 -1.46085 -22.2195 0.477177 -6.54413e-007 -3.04859e-006 -0.298283 18.5993 68.07 -19.5894 -8.13649 25.2326 3.48773 
59.6149 98.178 15.7306 -1.1011 -0.40131 0.0829922 -0.174629 -2.30451 0.0233462 -0.348038 -0.606316 0.0623507 -0.348834 1.03873 0.0681826 7.27378 20.1787 -4.27223 -4.00982 -6.12613 -2.22789 80.9232 3.71139 -1.05236 78.8782 0.697284 22.9819 -9.88296e-006 -4.73886e-007 -7.62381e-006 8.43993 17.2217 -2.62344 -5.249e-006 -3.1784e-006 -3 8.02887 -4.95158 0.697749 -69.6514 5.36974 -1.40182 -89.0093 9.57375 -31.7287 -3.51952e-006 -3.10329e-006 1.48808e-005 -5.47755 12.6555 1.0857 1.46402e-005 -9.80767e-007 3.00075 -8.02949 -4.95145 -0.697654 179.604 15.8868 -1.24153 180 7.01559e-015 178.976 178.934 24.5509 179.358 -1.02514e-006 7.58868e-007 0.329712 -18.3055 67.6185 19.2534 8.13649 25.2327 -3.48774 -178.928 9.99023 1.41159 4.54188e-006 -4.6773e-006 -1.07674 -1.50537 -22.4501 0.47021 -6.54413e-007 -3.04859e-006 -0.301822 18.5945 68.0654 -19.5861 -8.13649 25.2326 3.48773 
59.5583 97.8619 15.7207 -1.08885 -0.419497 0.0563601 -0.170092 -2.28883 0.0220908 -0.339024 -0.574943 0.0594775 -0.339788 1.07011 0.0651586 7.16748 20.2816 -4.22396 -3.948 -6.29231 -2.20786 81.183 3.86772 -1.02746 79.1738 0.650172 22.9766 -9.88296e-006 -4.73886e-007 -7.62381e-006 8.40558 17.1366 -2.61151 -5.249e-006 -3.1784e-006 -3 8.02887 -4.95158 0.697749 -70.1477 5.50341 -1.39868 -89.0647 9.38915 -31.9742 -3.51952e-006 -3.10329e-006 1.48808e-005 -5.32601 12.8145 1.06977 1.46402e-005 -9.80767e-007 3.00075 -8.02949 -4.95145 -0.697654 179.623 16.0492 -1.24174 180 7.01558e-015 178.974 178.947 24.9029 179.347 -1.02514e-006 7.58868e-007 0.335722 -18.3128 67.6283 19.2617 8.13552 25.2182 -3.48813 -178.997 10.09 1.39889 4.54188e-006 -4.6773e-006 -1.07732 -1.55491 -22.7064 0.463004 -6.54413e-007 -3.04859e-006 -0.305326 18.5789 68.0576 -19.5795 -8.13515 25.2127 3.48706 
